<?xml version="1.0" encoding="iso-8859-1"?>
<!-- Generator: Adobe Illustrator 19.0.0, SVG Export Plug-In . SVG Version: 6.00 Build 0)  -->
<svg version="1.1" id="Capa_1" xmlns="http://www.w3.org/2000/svg" xmlns:xlink="http://www.w3.org/1999/xlink" x="0px" y="0px"
	 viewBox="0 0 512 512" style="enable-background:new 0 0 512 512;" xml:space="preserve">
<g>
	<g>
		<g>
			<polygon points="352,96 352,128 480,128 480,224 512,224 512,96 			"/>
			<rect x="480" y="256" width="32" height="32"/>
			<rect x="480" y="320" width="32" height="32"/>
			<path d="M480,480H64c-17.673,0-32-14.327-32-32c0-17.673,14.327-32,32-32s32,14.327,32,32h32V128h48V96h-48V64
				c0-35.346-28.654-64-64-64S0,28.654,0,64v384c0,35.346,28.654,64,64,64h448V384h-32V480z M32,64c0-17.673,14.327-32,32-32
				s32,14.327,32,32v328.592c-19.934-10.929-44.066-10.929-64,0V64z"/>
			<path d="M191.184,309.056L224.864,208H288v112h32V32h-32V0h-32v32h-32v77.392l-63.184,189.552L191.184,309.056z M256,64h32v32
				h-32V64z M251.536,128H288v48h-52.464L251.536,128z"/>
			<path d="M200.128,346l-29.648,12c29.85,73.715,113.805,109.274,187.52,79.424c73.715-29.85,109.274-113.805,79.424-187.52
				c-14.632-36.135-43.29-64.792-79.424-79.424l-12,29.664c57.327,23.234,84.965,88.541,61.731,145.867
				c-23.234,57.327-88.541,84.965-145.867,61.731C233.78,396.36,211.507,374.085,200.128,346z"/>
			<rect x="288" y="352" width="32" height="32"/>
			<rect x="352" y="288" width="32" height="32"/>
		</g>
	</g>
</g>
<g>
</g>
<g>
</g>
<g>
</g>
<g>
</g>
<g>
</g>
<g>
</g>
<g>
</g>
<g>
</g>
<g>
</g>
<g>
</g>
<g>
</g>
<g>
</g>
<g>
</g>
<g>
</g>
<g>
</g>
</svg>
