<?xml version="1.0" ?><!DOCTYPE svg  PUBLIC '-//W3C//DTD SVG 1.1//EN'  'http://www.w3.org/Graphics/SVG/1.1/DTD/svg11.dtd'><svg enable-background="new 0 0 512 512" height="512px" id="car_x5F_parking" version="1.1" viewBox="0 0 512 512" width="512px" xml:space="preserve" xmlns="http://www.w3.org/2000/svg" xmlns:xlink="http://www.w3.org/1999/xlink"><path d="M133.801,314.912l11.102-16.713v-54.907v-16.719c-4.512,0.644-9.115,0.996-13.801,0.996c-4.687,0-9.29-0.353-13.802-0.996  v16.719v72.344h15.161C133.003,315.637,133.504,315.366,133.801,314.912z"/><path d="M117.3,214.707v0.169c4.496,0.731,9.103,1.126,13.802,1.126c4.698,0,9.305-0.396,13.801-1.126v-0.169  c40.687-6.601,71.755-41.881,71.755-84.433c0-47.251-38.305-85.556-85.556-85.556c-47.252,0-85.557,38.305-85.557,85.556  C45.545,172.825,76.613,208.105,117.3,214.707z M131.102,69.656c33.478,0,60.617,27.14,60.617,60.618s-27.14,60.618-60.617,60.618  c-33.479,0-60.618-27.14-60.618-60.618S97.623,69.656,131.102,69.656z"/><path d="M123.387,136.766v-30.029h10.968c6.047,0,10.966,4.919,10.966,10.967c0,6.047-4.919,10.967-10.966,10.967v16.19  c14.976,0,27.156-12.182,27.156-27.157c0-14.975-12.181-27.158-27.156-27.158h-27.158v8.095v38.125v33.236h16.19V136.766z"/><path d="M382.058,319.914l-39.213-58.219c-5.381-7.988-14.382-12.777-24.014-12.777h-55.853h-55.854  c-9.632,0-18.632,4.79-24.013,12.777l-5.681,8.434l-32.529,48.976l-1.441,2.17c-2.415,3.699-6.537,5.931-11,5.931h-1.703H117.3  v0.039h-9.557c-11.944,0-22.662,7.334-26.987,18.467l-20.093,51.715c-4.297,11.058,3.861,22.979,15.725,22.979h50.313  c0,25.89,20.987,46.877,46.877,46.877s46.877-20.987,46.877-46.877h42.523h42.522c0,25.89,20.987,46.877,46.877,46.877  s46.877-20.987,46.877-46.877h50.313c11.864,0,20.021-11.922,15.726-22.979l-20.093-51.715  c-4.326-11.133-15.043-18.467-26.987-18.467h-22.38C390.308,327.244,385.145,324.496,382.058,319.914z M173.578,441.566  c-11.687,0-21.161-9.475-21.161-21.161s9.475-21.161,21.161-21.161c11.688,0,21.161,9.475,21.161,21.161  S185.266,441.566,173.578,441.566z M250.071,319.159c0,4.138-3.354,7.491-7.491,7.491h-53.027c-7.092,0-11.452-7.759-7.766-13.816  l19.797-32.523c3.119-5.123,8.685-8.251,14.683-8.251h26.313c4.138,0,7.491,3.354,7.491,7.491V319.159z M283.376,326.65  c-4.138,0-7.491-3.354-7.491-7.491v-39.608c0-4.137,3.354-7.491,7.491-7.491h26.313c5.999,0,11.563,3.128,14.683,8.251  l19.797,32.523c3.688,6.058-0.674,13.816-7.765,13.816H283.376z M352.378,441.566c-11.687,0-21.161-9.475-21.161-21.161  s9.475-21.161,21.161-21.161c11.688,0,21.161,9.475,21.161,21.161S364.065,441.566,352.378,441.566z"/></svg>