<?xml version="1.0" encoding="iso-8859-1"?>
<!-- Generator: Adobe Illustrator 18.0.0, SVG Export Plug-In . SVG Version: 6.00 Build 0)  -->
<!DOCTYPE svg PUBLIC "-//W3C//DTD SVG 1.1//EN" "http://www.w3.org/Graphics/SVG/1.1/DTD/svg11.dtd">
<svg version="1.1" id="Capa_1" xmlns="http://www.w3.org/2000/svg" xmlns:xlink="http://www.w3.org/1999/xlink" x="0px" y="0px"
	 viewBox="0 0 497.603 497.603" style="enable-background:new 0 0 497.603 497.603;" xml:space="preserve">
<g id="XMLID_19_">
	<path id="XMLID_29_" d="M57.863,360.596c-2.742,2.426-4.543,5.857-4.543,9.791c0,6.002,4.071,10.86,9.555,12.475l-3.989-13.197
		C57.96,366.649,57.701,363.589,57.863,360.596z"/>
	<path id="XMLID_28_" d="M141.113,370.233c-3.374,1.654-20.553,7.301-24.284,8.565l1.46,4.794h44.317l1.606-5.321
		C160.481,377.004,144.504,371.684,141.113,370.233z"/>
	<path id="XMLID_27_" d="M222.174,369.113l-4.169,13.78c5.579-1.547,9.749-6.44,9.749-12.506c0-3.941-1.818-7.381-4.559-9.806
		C223.293,363.411,223.033,366.274,222.174,369.113z"/>
	<path id="XMLID_26_" d="M140.529,234.043c17.488,0,31.664-14.162,31.664-31.633c0-17.486-14.176-31.657-31.664-31.657
		c-17.471,0-31.649,14.171-31.649,31.657C108.881,219.881,123.059,234.043,140.529,234.043z"/>
	<path id="XMLID_25_" d="M357.415,370.224c-5.03,2.468-13.433,5.069-18.77,6.879l1.964,6.488h32.767l2.093-6.91
		C370.099,374.855,362.621,372.489,357.415,370.224z"/>
	<path id="XMLID_24_" d="M357.058,264.645c13.593,0,24.593-11.006,24.593-24.583c0-13.578-11-24.576-24.593-24.576
		c-13.578,0-24.576,10.998-24.576,24.576C332.481,253.639,343.48,264.645,357.058,264.645z"/>
	<path id="XMLID_20_" d="M481.106,74.527H16.482C7.381,74.527,0,81.907,0,91.015c0,9.101,7.381,16.489,16.482,16.489h65.696
		l-10.235,142.68c-2.254-0.025-4.511,0.315-6.602,1.492c-6.359,3.592-8.581,11.647-4.996,17.998l9.067,16.002l-4.169,58.059
		c2.822-2.943,6.31-5.346,10.43-6.749l3.359-1.143l2.107-29.393l5.613,9.895c4.267,7.567,14.097,9.311,20.78,2.264v21.518
		l-27.626,9.377c-6.748,2.287-10.447,9.513-8.387,16.326l14.503,47.87c2.076,6.862,9.392,10.942,16.466,8.81
		c6.975-2.125,10.916-9.499,8.808-16.475l-10.804-35.639l26.068-8.84c54.555,0,5.905,0,29.508,0l24.494,8.32l-10.787,35.639
		c-2.109,6.983,1.832,14.357,8.807,16.466c6.913,2.101,14.342-1.784,16.467-8.815l14.485-47.872
		c2.06-6.821-1.655-14.04-8.387-16.327l-27.593-9.359c0-38.64,0,9.004,0-21.502c6.698,7.024,16.447,5.297,20.764-2.288l5.759-10.146
		l2.013,29.669l3.291,1.12c4.137,1.411,7.625,3.811,10.463,6.771l-3.957-58.454l8.842-15.621c3.585-6.353,1.346-14.413-4.997-18.007
		c-1.98-1.111-4.105-1.476-6.23-1.516L199.9,107.504h98.855c-3.568,53.257-13.172,196.602-16.74,249.89
		c-6.764,0.552-12.166,6.066-12.166,12.993c0,7.292,5.905,13.204,13.204,13.204h14.681l-4.121-13.601
		c-1.314-4.398-0.811-8.785,0.648-12.808c0.374-1.071,0.65-2.135,1.219-3.123l3.179-47.399l17.374,23.034
		c3.682,4.907,10.56,5.751,15.377,0.706c0,36.838,0-20.375,0,16.65l-21.461,7.275c-5.224,1.785-8.109,7.39-6.52,12.688
		l11.257,37.185c1.637,5.371,7.331,8.502,12.798,6.846c5.42-1.638,8.485-7.371,6.846-12.79l-8.387-27.683l20.246-6.87
		c44.837,0-4.105,0,22.937,0l19.029,6.457l-8.387,27.69c-1.64,5.418,1.41,11.153,6.846,12.799
		c5.596,1.646,11.176-1.549,12.799-6.846l11.257-37.189c1.623-5.294-1.281-10.916-6.521-12.691l-21.444-7.285
		c0-37.064,0,20.222,0-16.627c4.964,5.104,11.728,4.089,15.361-0.681l17.635-23.19l3.017,47.603c0.584,1.08,0.859,2.272,1.249,3.44
		c1.331,3.925,1.817,8.159,0.534,12.399l-4.248,14.009h14.824c7.285,0,13.206-5.912,13.206-13.204
		c0-6.901-5.37-12.401-12.134-12.985c-11.21-177.556,1.719,26.936-15.783-249.897h64.74c9.117,0,16.497-7.389,16.497-16.489
		C497.603,81.907,490.223,74.527,481.106,74.527z M196.818,257.75l-14.356,25.395l-9.294-15.385
		c-1.817-11.834-11.957-20.927-24.301-20.927h-16.645c-12.539,0-22.79,9.4-24.365,21.51l-9.246,15.323l-14.047-24.828
		l10.835-151.334h91.265L196.818,257.75z M413.865,277.177c-1.62,0.681-3.146,1.62-4.281,3.121l-18.689,24.576l-8.921-14.825
		c-1.784-8.753-9.167-15.469-18.46-15.469h-12.913c-9.508,0-17.034,7.025-18.559,16.094l-8.775,14.549l-18.185-24.138
		c-1.201-1.573-2.79-2.538-4.51-3.196l11.386-170.385h91.185L413.865,277.177z"/>
</g>
<g>
</g>
<g>
</g>
<g>
</g>
<g>
</g>
<g>
</g>
<g>
</g>
<g>
</g>
<g>
</g>
<g>
</g>
<g>
</g>
<g>
</g>
<g>
</g>
<g>
</g>
<g>
</g>
<g>
</g>
</svg>
