<?xml version="1.0" encoding="iso-8859-1"?>
<!-- Generator: Adobe Illustrator 19.0.0, SVG Export Plug-In . SVG Version: 6.00 Build 0)  -->
<svg version="1.1" id="Capa_1" xmlns="http://www.w3.org/2000/svg" xmlns:xlink="http://www.w3.org/1999/xlink" x="0px" y="0px"
	 viewBox="0 0 512 512" style="enable-background:new 0 0 512 512;" xml:space="preserve">
<g>
	<g>
		<rect x="136.499" y="244.152" width="185.432" height="60.781"/>
	</g>
</g>
<g>
	<g>
		<path d="M136.499,335.839v160.708c0,8.534,6.919,15.453,15.453,15.453h154.527c8.534,0,15.453-6.919,15.453-15.453V335.839
			H136.499z"/>
	</g>
</g>
<g>
	<g>
		<path d="M74.688,143.196v352.321c0,8.534,6.919,15.453,15.453,15.453s15.453-6.919,15.453-15.453V143.196
			c0-38.966,22.192-72.843,54.599-89.666V26.785c0-2.466,0.198-4.886,0.571-7.249C110.558,38.185,74.688,86.578,74.688,143.196z"/>
	</g>
</g>
<g>
	<g>
		<path d="M432.41,4.163c-3.127-2.923-7.317-4.422-11.598-4.126l-125.29,8.507c2.408,5.602,3.746,11.768,3.746,18.241v35.727
			c13.413,9.269,24.756,21.044,33.505,34.492l88.039,5.978c0.35,0.024,0.699,0.036,1.049,0.036c3.903,0,7.678-1.479,10.549-4.162
			c3.127-2.922,4.903-7.01,4.903-11.291V15.453C437.311,11.173,435.536,7.084,432.41,4.163z"/>
	</g>
</g>
<g>
	<g>
		<path d="M268.362,80.28V26.785c0-8.534-6.919-15.453-15.453-15.453h-46.358c-8.534,0-15.453,6.919-15.453,15.453v53.014
			c-32.166,14.565-54.599,46.969-54.599,84.515v48.934h185.432v-48.934C321.931,127.172,299.975,95.067,268.362,80.28z"/>
	</g>
</g>
<g>
</g>
<g>
</g>
<g>
</g>
<g>
</g>
<g>
</g>
<g>
</g>
<g>
</g>
<g>
</g>
<g>
</g>
<g>
</g>
<g>
</g>
<g>
</g>
<g>
</g>
<g>
</g>
<g>
</g>
</svg>
