<?xml version="1.0" encoding="iso-8859-1"?>
<!-- Generator: Adobe Illustrator 19.0.0, SVG Export Plug-In . SVG Version: 6.00 Build 0)  -->
<svg version="1.1" id="Capa_1" xmlns="http://www.w3.org/2000/svg" xmlns:xlink="http://www.w3.org/1999/xlink" x="0px" y="0px"
	 viewBox="0 0 512 512" style="enable-background:new 0 0 512 512;" xml:space="preserve">
<g>
	<g>
		<g>
			<path d="M230.4,200.533H76.8c-9.422,0.009-17.057,7.645-17.067,17.067H51.2c-9.422,0.009-17.057,7.645-17.067,17.067v17.067
				c0.009,9.422,7.645,17.057,17.067,17.067h8.533V320H51.2c-9.422,0.009-17.057,7.645-17.067,17.067v17.067
				c0.009,9.422,7.645,17.057,17.067,17.067h8.533c0.009,9.422,7.645,17.057,17.067,17.067h153.6
				c9.422-0.009,17.057-7.645,17.067-17.067V217.6C247.457,208.178,239.822,200.543,230.4,200.533z M59.733,354.133H51.2v-17.067
				h8.533V354.133z M59.733,251.733H51.2v-17.067h8.533V251.733z M76.8,371.2V217.6h153.6l0.012,153.6H76.8z"/>
			<path d="M136.533,311.467H102.4c-4.713,0-8.533,3.82-8.533,8.533s3.82,8.533,8.533,8.533h34.133c4.713,0,8.533-3.82,8.533-8.533
				S141.246,311.467,136.533,311.467z"/>
			<path d="M136.533,337.067H102.4c-4.713,0-8.533,3.821-8.533,8.533c0,4.713,3.82,8.533,8.533,8.533h34.133
				c4.713,0,8.533-3.821,8.533-8.533C145.067,340.887,141.246,337.067,136.533,337.067z"/>
			<path d="M204.8,277.333c-4.713,0-8.533,3.821-8.533,8.533v17.067c0,4.713,3.82,8.533,8.533,8.533s8.533-3.82,8.533-8.533v-17.067
				C213.333,281.154,209.513,277.333,204.8,277.333z"/>
			<path d="M409.6,183.467h-128c-9.422,0.009-17.057,7.645-17.067,17.067V268.8c0.009,9.422,7.645,17.057,17.067,17.067h128
				c9.422-0.009,17.057-7.645,17.067-17.067v-68.267C426.657,191.112,419.022,183.476,409.6,183.467z M281.6,268.8v-68.267h128
				l0.012,68.267H281.6z"/>
			<path d="M409.6,302.933h-128c-9.422,0.009-17.057,7.645-17.067,17.067v68.267c0.009,9.422,7.645,17.057,17.067,17.067h128
				c9.422-0.009,17.057-7.645,17.067-17.067V320C426.657,310.578,419.022,302.943,409.6,302.933z M281.6,388.267V320h128
				l0.012,68.267H281.6z"/>
			<path d="M358.4,337.067h-25.6c-4.713,0-8.533,3.821-8.533,8.533c0,4.713,3.821,8.533,8.533,8.533h25.6
				c4.713,0,8.533-3.821,8.533-8.533C366.933,340.887,363.113,337.067,358.4,337.067z"/>
			<path d="M503.467,465.067h-59.733v-25.6c9.422-0.009,17.057-7.645,17.067-17.067V132.267h25.6c4.067,0,7.569-2.87,8.367-6.858
				l17.067-85.333c0.502-2.507-0.147-5.107-1.767-7.084s-4.043-3.124-6.599-3.124h-59.733c-42.395,0.049-76.751,34.405-76.8,76.8
				v42.667H281.6v-17.067c-0.037-32.974-26.759-59.696-59.733-59.733h-8.533c0-4.713-3.821-8.533-8.533-8.533H102.4
				c-4.713,0-8.533,3.82-8.533,8.533H8.533C3.82,72.533,0,76.354,0,81.067V115.2c0,4.713,3.82,8.533,8.533,8.533h25.6v25.6H17.067
				C7.645,149.343,0.009,156.978,0,166.4v256c0.009,9.422,7.645,17.057,17.067,17.067v25.6H8.533C3.82,465.067,0,468.887,0,473.6
				c0,4.713,3.82,8.533,8.533,8.533h494.933c4.713,0,8.533-3.821,8.533-8.533C512,468.887,508.18,465.067,503.467,465.067z
				 M460.8,46.933h32.258L479.404,115.2H460.8V46.933z M384,106.667c0.037-32.974,26.759-59.696,59.733-59.733V115.2H384V106.667z
				 M384,132.267h59.733v17.067H384V132.267z M213.333,89.6h8.533c23.553,0.028,42.639,19.114,42.667,42.667v17.067h-51.2V89.6z
				 M110.933,81.067h85.333V115.2h-85.333V81.067z M102.4,132.267h93.867v17.067H51.2v-25.6h42.667
				C93.867,128.446,97.687,132.267,102.4,132.267z M17.067,106.667V89.6h76.8v17.067H17.067z M17.067,166.4h426.667l0.013,256
				H17.067V166.4z M426.667,465.067H34.133v-25.6h392.533V465.067z"/>
		</g>
	</g>
</g>
<g>
</g>
<g>
</g>
<g>
</g>
<g>
</g>
<g>
</g>
<g>
</g>
<g>
</g>
<g>
</g>
<g>
</g>
<g>
</g>
<g>
</g>
<g>
</g>
<g>
</g>
<g>
</g>
<g>
</g>
</svg>
